<svg id="Logo_Dual" data-name="Logo Dual" xmlns="http://www.w3.org/2000/svg" xmlns:xlink="http://www.w3.org/1999/xlink" viewBox="0 0 269.44 95.94"><defs><style>.cls-1{fill:#a7a7a7;}.cls-1,.cls-3,.cls-4,.cls-6,.cls-7,.cls-8{fill-rule:evenodd;}.cls-2,.cls-3{fill:#fff;}.cls-4,.cls-5{fill:#151514;}.cls-6{fill:url(#GradientFill_1);}.cls-7{fill:url(#GradientFill_1-2);}.cls-8{fill:url(#GradientFill_2);}</style><linearGradient id="GradientFill_1" x1="62.31" y1="66.77" x2="93.86" y2="29.17" gradientUnits="userSpaceOnUse"><stop offset="0" stop-color="#737373"/><stop offset="1" stop-color="#e7e7e8"/></linearGradient><linearGradient id="GradientFill_1-2" x1="215.95" y1="63.86" x2="167.01" y2="32.08" xlink:href="#GradientFill_1"/><linearGradient id="GradientFill_2" x1="134.78" y1="61.96" x2="140.61" y2="40.21" gradientUnits="userSpaceOnUse"><stop offset="0" stop-color="#a7a7a7"/><stop offset="1" stop-color="#e7e7e8"/></linearGradient></defs><title>DualBrand-Logo</title><polygon class="cls-1" points="52.27 32.17 67.76 32.17 78.08 42.49 88.4 32.17 103.89 32.17 103.89 63.77 87.18 63.77 87.18 52.16 78.08 61.26 68.98 52.16 68.98 63.77 52.27 63.77 52.27 32.17"/><polygon class="cls-1" points="165.79 32.17 182.1 32.17 200.46 45.79 200.46 32.17 217.16 32.17 217.16 63.77 200.74 63.77 182.5 50.27 182.5 63.77 165.79 63.77 165.79 32.17"/><path class="cls-1" d="M126.22,32.17h17.35l20.56,31.6H146.76l-2.23-3.45H125.26L123,63.77H105.66l20.56-31.6Zm8.68,13.18-3.88,6h7.75Z"/><polygon class="cls-2" points="67.43 32.97 53.08 32.97 53.08 62.97 68.18 62.97 68.18 50.22 78.08 60.12 87.98 50.22 87.98 62.97 103.09 62.97 103.09 32.97 88.74 32.97 78.08 43.63 67.43 32.97"/><polygon class="cls-2" points="181.83 32.97 166.6 32.97 166.6 62.97 181.7 62.97 181.7 48.68 201 62.97 216.36 62.97 216.36 32.97 201.26 32.97 201.26 47.39 181.83 32.97"/><path class="cls-3" d="M140.25,52.14h-10.7l5.35-8.27,5.35,8.27ZM143.13,33H126.66L107.14,63H122.6l2.22-3.45H145L147.2,63h15.45Z"/><path class="cls-1" d="M134.9,41.23v2.64q-2.94,6.24-5.35,8.27l-2.64,1.43Z"/><polygon class="cls-4" points="53.08 32.97 54.51 34.41 54.51 61.53 66.75 61.53 68.18 62.97 53.08 62.97 53.08 32.97"/><polygon class="cls-4" points="66.75 46.76 78.08 58.09 89.42 46.76 89.42 61.53 101.65 61.53 103.09 62.97 87.98 62.97 87.98 50.22 78.08 60.12 68.18 50.22 66.75 46.76"/><polygon class="cls-4" points="78.08 43.63 88.74 32.97 89.33 34.41 78.08 45.66 78.08 43.63"/><polygon class="cls-4" points="134.9 41.23 142.88 53.57 140.25 52.14 134.9 43.87 134.9 41.23"/><polygon class="cls-4" points="166.6 32.97 168.03 34.41 168.03 61.53 180.26 61.53 181.7 62.97 166.6 62.97 166.6 32.97"/><polygon class="cls-4" points="180.26 45.83 201.47 61.53 214.93 61.53 216.36 62.97 201 62.97 181.7 48.68 180.26 45.83"/><polygon class="cls-4" points="201.26 32.97 202.69 34.41 202.69 50.24 201.26 47.39 201.26 32.97"/><polygon class="cls-5" points="124.04 58.09 145.75 58.09 147.98 61.53 160.01 61.53 162.65 62.97 147.2 62.97 144.97 59.52 124.82 59.52 122.6 62.97 107.14 62.97 126.66 32.97 127.44 34.41 109.78 61.53 121.81 61.53 124.04 58.09"/><polygon class="cls-6" points="66.83 34.41 54.51 34.41 54.51 61.53 66.75 61.53 66.75 46.76 78.08 58.09 89.42 46.76 89.42 61.53 101.65 61.53 101.65 34.41 89.33 34.41 78.08 45.66 66.83 34.41"/><polygon class="cls-7" points="181.36 34.41 168.03 34.41 168.03 61.53 180.26 61.53 180.26 45.83 201.47 61.53 214.93 61.53 214.93 34.41 202.69 34.41 202.69 50.24 181.36 34.41"/><path class="cls-8" d="M142.88,53.57h-16l8-12.34,8,12.34Zm-.53-19.16H127.44L109.78,61.53h12L124,58.09h21.71L148,61.53h12Z"/></svg>